<?xml version="1.0" encoding="iso-8859-1"?>
<!-- Uploaded to: SVG Repo, www.svgrepo.com, Generator: SVG Repo Mixer Tools -->
<svg height="800px" width="800px" version="1.1" id="Layer_1" xmlns="http://www.w3.org/2000/svg" xmlns:xlink="http://www.w3.org/1999/xlink" 
	 viewBox="0 0 512 512" xml:space="preserve">
<path style="fill:#FFD15C;" d="M158.943,428.119H65.986c-4.83,0-9.413-2.137-12.518-5.838l-39.667-47.279
	c-6.426-7.66-9.965-17.384-9.965-27.382V224.558c0-9.998,3.539-19.723,9.965-27.382l67.675-80.656
	c15.272-18.201,42.633-21.161,60.992-6.593c19.337,15.341,22.142,43.494,6.33,62.339L97.35,233.58v16.177
	c7.795-9.967,19.699-16.537,33.014-16.903c24.669-0.673,44.919,19.075,44.919,43.687v135.238
	C175.284,420.803,167.968,428.119,158.943,428.119z"/>
<path style="fill:#F8B64C;" d="M114.035,323.316c9.024,0,16.34-7.316,16.34-16.34v-74.121c-0.003,0-0.008,0-0.011,0
	c-13.125,0.361-24.87,6.756-32.67,16.484v57.637C97.695,316.001,105.01,323.316,114.035,323.316z"/>
<path style="fill:#169ED9;" d="M184.425,509.691H16.34c-9.024,0-16.34-7.316-16.34-16.34v-81.571c0-9.024,7.316-16.34,16.34-16.34
	h168.084c9.024,0,16.34,7.316,16.34,16.34v81.571C200.765,502.374,193.449,509.691,184.425,509.691z"/>
<path style="fill:#FF7058;" d="M295.727,178.765L256,157.88l-39.727,20.885c-11.963,6.29-25.995-3.897-23.709-17.226l7.587-44.236
	l-32.139-31.328c-9.679-9.435-4.327-25.927,9.056-27.871l44.415-6.453l19.863-40.248c5.983-12.122,23.321-12.124,29.306,0
	l19.862,40.248l44.415,6.453c13.377,1.945,18.738,18.433,9.056,27.871l-32.139,31.328l7.587,44.236
	C321.735,174.946,307.613,185.012,295.727,178.765z"/>
<path style="fill:#F8B64C;" d="M336.716,411.779V276.541c0-24.583,20.222-44.361,44.919-43.687
	c13.315,0.365,25.219,6.936,33.014,16.903V233.58L363.2,172.265c-15.802-18.832-13.021-46.986,6.33-62.339
	c18.36-14.568,45.722-11.608,60.992,6.593l67.676,80.656c6.426,7.659,9.965,17.384,9.965,27.382V347.62
	c0,9.998-3.539,19.722-9.965,27.382l-39.667,47.279c-3.105,3.701-7.688,5.838-12.518,5.838h-92.957
	C344.032,428.119,336.716,420.803,336.716,411.779z"/>
<path style="fill:#F59D00;" d="M397.965,323.316c-9.024,0-16.34-7.316-16.34-16.34v-74.121c0.003,0,0.008,0,0.011,0
	c13.125,0.361,24.87,6.756,32.67,16.484v57.637C414.305,316.001,406.99,323.316,397.965,323.316z"/>
<path style="fill:#127FB5;" d="M311.235,493.35v-81.571c0-9.024,7.316-16.34,16.34-16.34H495.66c9.024,0,16.34,7.316,16.34,16.34
	v81.571c0,9.024-7.316,16.34-16.34,16.34H327.575C318.551,509.691,311.235,502.374,311.235,493.35z"/>
<path style="fill:#F1543F;" d="M334.932,58.103l-44.415-6.453l-19.862-40.248c-2.992-6.063-8.825-9.094-14.656-9.093v155.572
	l0.003-0.002l39.727,20.885c11.886,6.247,26.009-3.818,23.71-17.226l-7.587-44.236l32.139-31.328
	C353.67,76.536,348.309,60.048,334.932,58.103z"/>
</svg>